<svg version="1.1" xmlns="http://www.w3.org/2000/svg" viewBox="0 0 1521.3599395751953 689" width="1521.3599395751953" height="689" filter="invert(93%) hue-rotate(180deg)">
  <!-- svg-source:excalidraw -->
  
  <defs>
    <style class="style-fonts">
      @font-face {
        font-family: "Virgil";
        src: url("https://excalidraw.com/Virgil.woff2");
      }
      @font-face {
        font-family: "Cascadia";
        src: url("https://excalidraw.com/Cascadia.woff2");
      }
      @font-face {
        font-family: "Assistant";
        src: url("https://excalidraw.com/Assistant-Regular.woff2");
      }
    </style>
    
  </defs>
  <rect x="0" y="0" width="1521.3599395751953" height="689" fill="#ffffff"></rect><g stroke-linecap="round"><g transform="translate(565 603) rotate(0 -3.5 -287)"><path d="M-0.74 -0.28 C-1.93 -96.06, -6.8 -479.55, -7.77 -575 M1.07 -1.48 C0.33 -97.11, -4.1 -478.43, -5.46 -573.99" stroke="#1971c2" stroke-width="2" fill="none"></path></g><g transform="translate(565 603) rotate(0 -3.5 -287)"><path d="M5.15 -545.93 C2.16 -554.14, -1.63 -559.01, -5.46 -573.99 M5.15 -545.93 C1.25 -556.34, -2.34 -567.01, -5.46 -573.99" stroke="#1971c2" stroke-width="2" fill="none"></path></g><g transform="translate(565 603) rotate(0 -3.5 -287)"><path d="M-15.37 -545.67 C-13.34 -553.82, -12.11 -558.75, -5.46 -573.99 M-15.37 -545.67 C-11.4 -556.22, -7.13 -566.98, -5.46 -573.99" stroke="#1971c2" stroke-width="2" fill="none"></path></g></g><mask></mask><g stroke-linecap="round"><g transform="translate(570 604) rotate(0 432.5 -3)"><path d="M0.66 -0.85 C144.75 -1.99, 719.82 -5.18, 863.92 -6.18 M-0.45 1.31 C144.05 0.31, 721.88 -3.52, 866.07 -4.74" stroke="#1971c2" stroke-width="2" fill="none"></path></g><g transform="translate(570 604) rotate(0 432.5 -3)"><path d="M837.95 5.73 C843.54 1.14, 851.73 0.79, 866.07 -4.74 M837.95 5.73 C844.13 3.8, 849.79 1.42, 866.07 -4.74" stroke="#1971c2" stroke-width="2" fill="none"></path></g><g transform="translate(570 604) rotate(0 432.5 -3)"><path d="M837.8 -14.79 C843.54 -14.22, 851.76 -9.42, 866.07 -4.74 M837.8 -14.79 C843.85 -12.08, 849.55 -9.82, 866.07 -4.74" stroke="#1971c2" stroke-width="2" fill="none"></path></g></g><mask></mask><g transform="translate(1437 650) rotate(0 37.179969787597656 12.5)"><text x="0" y="0" font-family="Virgil, Segoe UI Emoji" font-size="20px" fill="#1971c2" text-anchor="start" style="white-space: pre;" direction="ltr" dominant-baseline="text-before-edge">token X</text></g><g transform="translate(466 10) rotate(0 36.35997009277344 12.5)"><text x="0" y="0" font-family="Virgil, Segoe UI Emoji" font-size="20px" fill="#1971c2" text-anchor="start" style="white-space: pre;" direction="ltr" dominant-baseline="text-before-edge">token Y</text></g><g stroke-linecap="round" transform="translate(10 66) rotate(0 123 143.33333333333331)"><path d="M32 0 C74.15 -1.32, 112 -2.35, 214 0 M32 0 C101.9 -1.39, 173.92 -0.84, 214 0 M214 0 C235.94 0.58, 245.57 9.99, 246 32 M214 0 C236.86 -0.06, 244.3 11.32, 246 32 M246 32 C245.88 95.25, 247.33 157.25, 246 254.67 M246 32 C245.45 112.65, 246.35 192.05, 246 254.67 M246 254.67 C247.58 274.57, 236 287.78, 214 286.67 M246 254.67 C244.35 277.97, 234.53 284.71, 214 286.67 M214 286.67 C168.9 287.36, 122.61 286.85, 32 286.67 M214 286.67 C171.28 285.38, 128.18 285.74, 32 286.67 M32 286.67 C9.63 288.41, -1.33 274.52, 0 254.67 M32 286.67 C9.04 286.55, -2.12 276.6, 0 254.67 M0 254.67 C0.32 198.33, -0.79 143.36, 0 32 M0 254.67 C1.39 202.85, 1.38 151.57, 0 32 M0 32 C0.08 11.38, 12.11 1.54, 32 0 M0 32 C0.55 10.86, 8.51 -1.28, 32 0" stroke="#1971c2" stroke-width="2" fill="none"></path></g><g transform="translate(35.84004211425783 109.33333333333331) rotate(0 97.15995788574219 100)"><text x="97.15995788574219" y="0" font-family="Virgil, Segoe UI Emoji" font-size="20px" fill="#1971c2" text-anchor="middle" style="white-space: pre;" direction="ltr" dominant-baseline="text-before-edge">MINT LIQUIDITY</text><text x="97.15995788574219" y="25" font-family="Virgil, Segoe UI Emoji" font-size="20px" fill="#1971c2" text-anchor="middle" style="white-space: pre;" direction="ltr" dominant-baseline="text-before-edge"></text><text x="97.15995788574219" y="50" font-family="Virgil, Segoe UI Emoji" font-size="20px" fill="#1971c2" text-anchor="middle" style="white-space: pre;" direction="ltr" dominant-baseline="text-before-edge">10 tokens X</text><text x="97.15995788574219" y="75" font-family="Virgil, Segoe UI Emoji" font-size="20px" fill="#1971c2" text-anchor="middle" style="white-space: pre;" direction="ltr" dominant-baseline="text-before-edge"></text><text x="97.15995788574219" y="100" font-family="Virgil, Segoe UI Emoji" font-size="20px" fill="#1971c2" text-anchor="middle" style="white-space: pre;" direction="ltr" dominant-baseline="text-before-edge">25 tokens Y</text><text x="97.15995788574219" y="125" font-family="Virgil, Segoe UI Emoji" font-size="20px" fill="#1971c2" text-anchor="middle" style="white-space: pre;" direction="ltr" dominant-baseline="text-before-edge"></text><text x="97.15995788574219" y="150" font-family="Virgil, Segoe UI Emoji" font-size="20px" fill="#1971c2" text-anchor="middle" style="white-space: pre;" direction="ltr" dominant-baseline="text-before-edge"></text><text x="97.15995788574219" y="175" font-family="Virgil, Segoe UI Emoji" font-size="20px" fill="#1971c2" text-anchor="middle" style="white-space: pre;" direction="ltr" dominant-baseline="text-before-edge">K = 10 x 25 = 250</text></g><g stroke-linecap="round"><g transform="translate(561 241) rotate(0 -30 0)"><path d="M-0.89 0.58 C-10.91 0.54, -50.93 0.41, -60.65 0.32 M0.85 -0.17 C-8.74 -0.63, -48.21 -1.89, -58.27 -1.63" stroke="#1971c2" stroke-width="2" fill="none"></path></g></g><mask></mask><g transform="translate(443 234) rotate(0 13.29998779296875 12.5)"><text x="0" y="0" font-family="Virgil, Segoe UI Emoji" font-size="20px" fill="#1971c2" text-anchor="start" style="white-space: pre;" direction="ltr" dominant-baseline="text-before-edge">25</text></g><g stroke-linecap="round"><g transform="translate(882 602) rotate(0 0 18.5)"><path d="M-0.45 -0.36 C-0.46 5.8, -0.61 31.02, -0.46 37.27 M0.32 0.64 C0.51 6.61, 0.54 30.25, 0.53 36.44" stroke="#1971c2" stroke-width="2" fill="none"></path></g></g><mask></mask><g transform="translate(872 654) rotate(0 9.589996337890625 12.5)"><text x="0" y="0" font-family="Virgil, Segoe UI Emoji" font-size="20px" fill="#1971c2" text-anchor="start" style="white-space: pre;" direction="ltr" dominant-baseline="text-before-edge">10</text></g><g stroke-linecap="round" transform="translate(570 236) rotate(0 153.5 181)"><path d="M7.86 8.16 C7.86 8.16, 7.86 8.16, 7.86 8.16 M7.86 8.16 C7.86 8.16, 7.86 8.16, 7.86 8.16 M1.43 27.75 C8.25 20.21, 13.31 14.22, 24.4 1.33 M1.43 27.75 C9.3 18.56, 17.37 9.69, 24.4 1.33 M0.91 40.54 C9.45 28.24, 19.56 15.25, 36.34 -0.21 M0.91 40.54 C9.8 32.44, 16.83 23.01, 36.34 -0.21 M1.04 52.58 C9.7 43.15, 21.17 31.89, 46.97 -0.25 M1.04 52.58 C19.38 31.91, 36.49 10.27, 46.97 -0.25 M1.18 64.62 C21.86 40.6, 40.44 19.54, 57.6 -0.28 M1.18 64.62 C18.08 44.14, 36.79 23.32, 57.6 -0.28 M1.31 76.67 C23.24 49.05, 47.27 25.85, 67.57 0.44 M1.31 76.67 C20.82 55.35, 38.36 34.15, 67.57 0.44 M0.79 89.46 C15.94 72.88, 30.68 54.11, 78.2 0.41 M0.79 89.46 C30.13 54.89, 59.78 21.61, 78.2 0.41 M0.92 101.5 C22.15 79.2, 40.63 55.45, 88.83 0.37 M0.92 101.5 C24.43 74.07, 47.17 47.73, 88.83 0.37 M1.05 113.54 C35.08 72.28, 72.75 31.48, 99.46 0.34 M1.05 113.54 C25.77 84.04, 51.99 52.38, 99.46 0.34 M1.19 125.58 C42.07 76.66, 83.8 33.33, 110.09 0.3 M1.19 125.58 C36.93 82.17, 73.93 41.29, 110.09 0.3 M0.66 138.38 C41.2 96.43, 75.57 50.83, 120.72 0.27 M0.66 138.38 C30.1 107.63, 56.66 75.29, 120.72 0.27 M0.8 150.42 C34.76 109.84, 71.96 70.26, 131.35 0.23 M0.8 150.42 C31.1 116.66, 63.35 80.87, 131.35 0.23 M0.93 162.46 C57.48 100.35, 111.78 39.07, 141.98 0.2 M0.93 162.46 C42.53 114.84, 84.05 66.69, 141.98 0.2 M1.06 174.5 C40.87 126.79, 84.15 79.66, 152.61 0.16 M1.06 174.5 C61.38 104.81, 123.08 34.98, 152.61 0.16 M0.54 187.3 C37.45 144.41, 74.05 103.21, 163.24 0.13 M0.54 187.3 C45.79 132.81, 93.61 78.49, 163.24 0.13 M0.67 199.34 C66.63 124.48, 129.21 51.42, 173.87 0.09 M0.67 199.34 C43.12 150.68, 86.54 101.3, 173.87 0.09 M0.81 211.38 C62.29 139.5, 123.77 68.79, 184.5 0.06 M0.81 211.38 C72.44 127.66, 144.58 43.63, 184.5 0.06 M0.94 223.42 C39.25 177.85, 78.48 133.67, 195.13 0.03 M0.94 223.42 C57.32 158.37, 112.91 93.11, 195.13 0.03 M1.07 235.46 C71.83 153.26, 143.97 70.64, 205.76 -0.01 M1.07 235.46 C46.14 181.35, 93.09 129.23, 205.76 -0.01 M0.55 248.26 C47.95 194.5, 94.8 143.52, 216.39 -0.04 M0.55 248.26 C47.93 194.03, 96.84 137.44, 216.39 -0.04 M0.68 260.3 C78.01 173.46, 153.45 83.99, 227.02 -0.08 M0.68 260.3 C76.36 171.42, 151.86 85.19, 227.02 -0.08 M0.82 272.34 C78.37 180.79, 158.04 87.68, 237.65 -0.11 M0.82 272.34 C54.59 209.56, 108.12 146.95, 237.65 -0.11 M0.95 284.38 C80.71 190.57, 158.65 99.44, 248.28 -0.15 M0.95 284.38 C77.81 198.7, 152.17 112.41, 248.28 -0.15 M0.43 297.17 C77.03 209.12, 152.43 122.54, 258.91 -0.18 M0.43 297.17 C69.21 216.8, 140.05 135.79, 258.91 -0.18 M0.56 309.22 C96.07 199.42, 189.44 91.84, 269.54 -0.22 M0.56 309.22 C69.37 229.6, 138.25 148.87, 269.54 -0.22 M0.69 321.26 C81.43 227.02, 162.73 136.85, 278.86 1.26 M0.69 321.26 C56.73 256.13, 112.96 191.75, 278.86 1.26 M0.83 333.3 C62.24 262.57, 123.74 189.86, 288.84 1.98 M0.83 333.3 C103.61 217.57, 205.69 100.77, 288.84 1.98 M2.27 343.83 C97.17 231.93, 192.72 122.64, 296.19 5.72 M2.27 343.83 C79.8 255.65, 156.37 167.2, 296.19 5.72 M6.34 351.34 C108.36 232.81, 211.46 114.86, 301.57 11.72 M6.34 351.34 C89.83 256.08, 172.75 160.12, 301.57 11.72 M11.72 357.34 C97.6 260.24, 182.9 160.26, 305.64 19.23 M11.72 357.34 C119.83 232.62, 228.63 106.21, 305.64 19.23 M19.73 360.33 C111.29 256.79, 202.18 150.68, 307.08 29.77 M19.73 360.33 C126.91 236.56, 235 111.09, 307.08 29.77 M29.05 361.8 C102.57 276.35, 175.72 190.79, 307.22 41.81 M29.05 361.8 C96.84 284.99, 165.04 206.76, 307.22 41.81 M39.02 362.52 C126.56 260.19, 217.33 159.25, 307.35 53.85 M39.02 362.52 C121.62 269.43, 201.71 176.41, 307.35 53.85 M49.65 362.49 C101.24 300.56, 155.78 237.21, 307.48 65.89 M49.65 362.49 C122.07 280.21, 191.5 199.23, 307.48 65.89 M60.28 362.45 C143.1 265.81, 229.86 167.62, 307.62 77.93 M60.28 362.45 C150.77 258.63, 238.79 157.38, 307.62 77.93 M70.91 362.42 C136.56 287.61, 204.48 211.36, 307.75 89.97 M70.91 362.42 C129.51 297.27, 187.21 231.31, 307.75 89.97 M81.54 362.39 C156.73 277.04, 231.7 188.15, 307.23 102.77 M81.54 362.39 C168.14 261.95, 254.96 162.99, 307.23 102.77 M92.17 362.35 C160.46 279.52, 230.97 200.79, 307.36 114.81 M92.17 362.35 C140.2 308.11, 187.35 253.81, 307.36 114.81 M102.8 362.32 C150.85 305.08, 199.88 250.22, 307.49 126.85 M102.8 362.32 C155.91 302.58, 207.85 242.22, 307.49 126.85 M113.43 362.28 C187.29 279.52, 257.54 194.65, 307.62 138.89 M113.43 362.28 C163.71 303.05, 214.4 245.75, 307.62 138.89 M124.06 362.25 C161.06 318.35, 197.79 274.27, 307.76 150.93 M124.06 362.25 C192.43 282.91, 260.41 203.26, 307.76 150.93 M134.69 362.21 C191.52 293.31, 250.88 224.8, 307.24 163.72 M134.69 362.21 C187.63 302.14, 239.61 243.55, 307.24 163.72 M145.32 362.18 C201.1 295.24, 261.08 228.36, 307.37 175.77 M145.32 362.18 C207.38 290.14, 272.67 216.68, 307.37 175.77 M155.95 362.14 C212.4 298.65, 264.3 235.33, 307.5 187.81 M155.95 362.14 C195.55 314.28, 236.39 266.81, 307.5 187.81 M166.58 362.11 C200.74 324.2, 233.19 287.93, 307.63 199.85 M166.58 362.11 C209 313.49, 249.94 266.65, 307.63 199.85 M177.21 362.08 C204.3 330.13, 232.32 300.29, 307.77 211.89 M177.21 362.08 C228.25 304.47, 276.23 248.99, 307.77 211.89 M187.19 362.8 C224.7 319.62, 259.54 276.31, 307.24 224.68 M187.19 362.8 C220.78 324.67, 254.25 285, 307.24 224.68 M197.82 362.76 C229.5 325.68, 262.7 288.16, 307.38 236.72 M197.82 362.76 C223.39 336.65, 246.03 308.21, 307.38 236.72 M208.45 362.73 C237.51 329.31, 268.7 293.59, 307.51 248.77 M208.45 362.73 C241.26 324.88, 273.68 288.03, 307.51 248.77 M219.08 362.69 C244.12 334.44, 268.85 306.87, 307.64 260.81 M219.08 362.69 C244.07 332.4, 267.96 304.85, 307.64 260.81 M229.71 362.66 C252.34 336.05, 276.31 309.03, 307.78 272.85 M229.71 362.66 C245.57 343.82, 261.18 325.52, 307.78 272.85 M240.34 362.62 C256.48 343.69, 270.93 328.56, 307.25 285.64 M240.34 362.62 C254.65 344.15, 271.14 326.9, 307.25 285.64 M250.97 362.59 C272.3 340.85, 289.89 316.54, 307.39 297.68 M250.97 362.59 C265.31 345.96, 279.8 331.03, 307.39 297.68 M261.6 362.55 C275.96 344.81, 290.01 329.81, 307.52 309.72 M261.6 362.55 C272.6 350.34, 284.16 338.39, 307.52 309.72 M272.23 362.52 C286.41 348.55, 298.76 332.49, 307.65 321.76 M272.23 362.52 C279.1 352.99, 288 344.09, 307.65 321.76 M284.17 360.98 C290.88 352.6, 298.44 345.96, 306.47 335.32 M284.17 360.98 C289.42 354.34, 293.55 349.26, 306.47 335.32" stroke="#a5d8ff" stroke-width="1" fill="none"></path><path d="M32 0 C98.84 2.33, 162.84 1.74, 275 0 M32 0 C121.29 -0.24, 211.13 0, 275 0 M275 0 C294.35 -0.62, 308.24 11.84, 307 32 M275 0 C294.78 1.4, 306.59 9.05, 307 32 M307 32 C306.54 142.77, 306.27 256.4, 307 330 M307 32 C307.66 148.43, 308.06 264.14, 307 330 M307 330 C307.61 351.87, 297.08 360.21, 275 362 M307 330 C307.88 349.68, 296.46 362.89, 275 362 M275 362 C198.79 364.94, 122.55 363.03, 32 362 M275 362 C189.07 361.03, 102.99 361.96, 32 362 M32 362 C10.09 362.57, 1.11 349.73, 0 330 M32 362 C12.17 360.97, -0.49 352.41, 0 330 M0 330 C-1.65 212.86, 0.19 98.88, 0 32 M0 330 C1.34 220.83, 1.43 110.34, 0 32 M0 32 C1.25 9.93, 9.53 -1.31, 32 0 M0 32 C-0.88 9.88, 8.48 -0.75, 32 0" stroke="#1971c2" stroke-width="2" fill="none"></path></g><g transform="translate(717.370002746582 404.5) rotate(0 6.129997253417969 12.5)"><text x="6.129997253417969" y="0" font-family="Virgil, Segoe UI Emoji" font-size="20px" fill="#1971c2" text-anchor="middle" style="white-space: pre;" direction="ltr" dominant-baseline="text-before-edge">K</text></g></svg>