<svg version="1.1" xmlns="http://www.w3.org/2000/svg" viewBox="0 0 1686.359939575195 699.5000000000002" width="1686.359939575195" height="699.5000000000002" filter="invert(93%) hue-rotate(180deg)">
  <!-- svg-source:excalidraw -->
  
  <defs>
    <style class="style-fonts">
      @font-face {
        font-family: "Virgil";
        src: url("https://excalidraw.com/Virgil.woff2");
      }
      @font-face {
        font-family: "Cascadia";
        src: url("https://excalidraw.com/Cascadia.woff2");
      }
      @font-face {
        font-family: "Assistant";
        src: url("https://excalidraw.com/Assistant-Regular.woff2");
      }
    </style>
    
  </defs>
  <rect x="0" y="0" width="1686.359939575195" height="699.5000000000002" fill="#ffffff"></rect><g stroke-linecap="round"><g transform="translate(729.9999999999999 603) rotate(0 -3.5 -287)"><path d="M-1.13 -1.15 C-2.56 -96.79, -7.32 -477.98, -8.19 -573.45 M0.47 0.87 C-0.65 -95.18, -4.9 -479.7, -6.11 -575.29" stroke="#e03131" stroke-width="2" fill="none"></path></g><g transform="translate(729.9999999999999 603) rotate(0 -3.5 -287)"><path d="M4.49 -547.22 C-1.05 -558.64, -1.75 -564.91, -6.11 -575.29 M4.49 -547.22 C2.29 -555.89, -2.71 -563.92, -6.11 -575.29" stroke="#e03131" stroke-width="2" fill="none"></path></g><g transform="translate(729.9999999999999 603) rotate(0 -3.5 -287)"><path d="M-16.03 -546.98 C-14.75 -558.28, -8.62 -564.63, -6.11 -575.29 M-16.03 -546.98 C-12.02 -555.68, -10.83 -563.78, -6.11 -575.29" stroke="#e03131" stroke-width="2" fill="none"></path></g></g><mask></mask><g stroke-linecap="round"><g transform="translate(734.9999999999999 604) rotate(0 432.49999999999994 -3)"><path d="M-1.19 0.55 C143.27 -0.26, 721.41 -4.85, 865.65 -5.97 M0.38 -0.21 C144.84 -0.71, 720.64 -3.62, 865.04 -4.42" stroke="#e03131" stroke-width="2" fill="none"></path></g><g transform="translate(734.9999999999999 604) rotate(0 432.49999999999994 -3)"><path d="M836.9 5.99 C843.69 5.2, 848.61 0.74, 865.04 -4.42 M836.9 5.99 C843.76 3.39, 851.75 1.05, 865.04 -4.42" stroke="#e03131" stroke-width="2" fill="none"></path></g><g transform="translate(734.9999999999999 604) rotate(0 432.49999999999994 -3)"><path d="M836.79 -14.54 C843.41 -11.1, 848.35 -11.34, 865.04 -4.42 M836.79 -14.54 C843.85 -11.36, 851.88 -7.92, 865.04 -4.42" stroke="#e03131" stroke-width="2" fill="none"></path></g></g><mask></mask><g transform="translate(1601.9999999999998 650) rotate(0 37.179969787597656 12.5)"><text x="0" y="0" font-family="Virgil, Segoe UI Emoji" font-size="20px" fill="#e03131" text-anchor="start" style="white-space: pre;" direction="ltr" dominant-baseline="text-before-edge">token X</text></g><g transform="translate(630.9999999999999 10) rotate(0 36.35997009277344 12.5)"><text x="0" y="0" font-family="Virgil, Segoe UI Emoji" font-size="20px" fill="#e03131" text-anchor="start" style="white-space: pre;" direction="ltr" dominant-baseline="text-before-edge">token Y</text></g><g stroke-linecap="round" transform="translate(10 99.33333333333326) rotate(0 224.66666666666669 192.5)"><path d="M32 0 C123.4 -3.05, 215.54 -2.96, 417.33 0 M32 0 C181.81 1.76, 330.55 1.96, 417.33 0 M417.33 0 C436.97 1.07, 451.2 9.04, 449.33 32 M417.33 0 C436.85 -1.74, 450.32 12.32, 449.33 32 M449.33 32 C449.25 121.87, 448.73 210.47, 449.33 353 M449.33 32 C449.63 158.38, 450.1 283.74, 449.33 353 M449.33 353 C447.73 373.84, 439.79 386.45, 417.33 385 M449.33 353 C451.49 373.02, 437.09 383.84, 417.33 385 M417.33 385 C307.96 385.74, 197.42 384.74, 32 385 M417.33 385 C290.51 385.01, 164.59 384.43, 32 385 M32 385 C9.91 383.03, -1.05 375.49, 0 353 M32 385 C11.23 385.45, 2.15 372.4, 0 353 M0 353 C-0.41 283.91, 0.19 215.85, 0 32 M0 353 C0 267.54, 0.84 182.15, 0 32 M0 32 C-1.51 11.48, 9.83 -0.92, 32 0 M0 32 C-1.65 11.58, 10.31 2.19, 32 0" stroke="#e03131" stroke-width="2" fill="none"></path></g><g transform="translate(56.85677591959637 104.33333333333326) rotate(0 177.8098907470703 187.5)"><text x="177.8098907470703" y="0" font-family="Virgil, Segoe UI Emoji" font-size="20px" fill="#e03131" text-anchor="middle" style="white-space: pre;" direction="ltr" dominant-baseline="text-before-edge">SWAP 5 token Y against ? tokens X</text><text x="177.8098907470703" y="25" font-family="Virgil, Segoe UI Emoji" font-size="20px" fill="#e03131" text-anchor="middle" style="white-space: pre;" direction="ltr" dominant-baseline="text-before-edge"></text><text x="177.8098907470703" y="50" font-family="Virgil, Segoe UI Emoji" font-size="20px" fill="#e03131" text-anchor="middle" style="white-space: pre;" direction="ltr" dominant-baseline="text-before-edge">In Pool = (10 - ?) tokens X</text><text x="177.8098907470703" y="75" font-family="Virgil, Segoe UI Emoji" font-size="20px" fill="#e03131" text-anchor="middle" style="white-space: pre;" direction="ltr" dominant-baseline="text-before-edge"></text><text x="177.8098907470703" y="100" font-family="Virgil, Segoe UI Emoji" font-size="20px" fill="#e03131" text-anchor="middle" style="white-space: pre;" direction="ltr" dominant-baseline="text-before-edge">In Pool = 30 tokens Y</text><text x="177.8098907470703" y="125" font-family="Virgil, Segoe UI Emoji" font-size="20px" fill="#e03131" text-anchor="middle" style="white-space: pre;" direction="ltr" dominant-baseline="text-before-edge"></text><text x="177.8098907470703" y="150" font-family="Virgil, Segoe UI Emoji" font-size="20px" fill="#e03131" text-anchor="middle" style="white-space: pre;" direction="ltr" dominant-baseline="text-before-edge"></text><text x="177.8098907470703" y="175" font-family="Virgil, Segoe UI Emoji" font-size="20px" fill="#e03131" text-anchor="middle" style="white-space: pre;" direction="ltr" dominant-baseline="text-before-edge">K = 250</text><text x="177.8098907470703" y="200" font-family="Virgil, Segoe UI Emoji" font-size="20px" fill="#e03131" text-anchor="middle" style="white-space: pre;" direction="ltr" dominant-baseline="text-before-edge"></text><text x="177.8098907470703" y="225" font-family="Virgil, Segoe UI Emoji" font-size="20px" fill="#e03131" text-anchor="middle" style="white-space: pre;" direction="ltr" dominant-baseline="text-before-edge">? = (X * 5) / (25 + 5)</text><text x="177.8098907470703" y="250" font-family="Virgil, Segoe UI Emoji" font-size="20px" fill="#e03131" text-anchor="middle" style="white-space: pre;" direction="ltr" dominant-baseline="text-before-edge">? = 10*5 / (30)</text><text x="177.8098907470703" y="275" font-family="Virgil, Segoe UI Emoji" font-size="20px" fill="#e03131" text-anchor="middle" style="white-space: pre;" direction="ltr" dominant-baseline="text-before-edge">? = 5/3 = 1.666</text><text x="177.8098907470703" y="300" font-family="Virgil, Segoe UI Emoji" font-size="20px" fill="#e03131" text-anchor="middle" style="white-space: pre;" direction="ltr" dominant-baseline="text-before-edge"></text><text x="177.8098907470703" y="325" font-family="Virgil, Segoe UI Emoji" font-size="20px" fill="#e03131" text-anchor="middle" style="white-space: pre;" direction="ltr" dominant-baseline="text-before-edge">K = 30 * (10-1.666) = 30 * 8.334</text><text x="177.8098907470703" y="350" font-family="Virgil, Segoe UI Emoji" font-size="20px" fill="#e03131" text-anchor="middle" style="white-space: pre;" direction="ltr" dominant-baseline="text-before-edge">K' = 250.02 = K</text></g><g stroke-linecap="round"><g transform="translate(725.9999999999999 241) rotate(0 -30 0)"><path d="M-1.08 1.05 C-10.8 0.81, -49.83 -0.82, -59.47 -1.11 M0.55 0.55 C-9.17 0.39, -50.2 -0.11, -60.14 -0.16" stroke="#1971c2" stroke-width="2" fill="none"></path></g></g><mask></mask><g transform="translate(607.9999999999999 234) rotate(0 13.29998779296875 12.5)"><text x="0" y="0" font-family="Virgil, Segoe UI Emoji" font-size="20px" fill="#1971c2" text-anchor="start" style="white-space: pre;" direction="ltr" dominant-baseline="text-before-edge">25</text></g><g stroke-linecap="round"><g transform="translate(1047 602) rotate(0 0 18.5)"><path d="M0.49 -0.33 C0.45 5.9, 0.15 30.58, -0.01 36.85 M0.08 0.69 C-0.06 7.04, -0.53 31.53, -0.44 37.48" stroke="#1971c2" stroke-width="2" fill="none"></path></g></g><mask></mask><g transform="translate(1037 654) rotate(0 9.589996337890625 12.5)"><text x="0" y="0" font-family="Virgil, Segoe UI Emoji" font-size="20px" fill="#1971c2" text-anchor="start" style="white-space: pre;" direction="ltr" dominant-baseline="text-before-edge">10</text></g><g stroke-linecap="round" transform="translate(734.9999999999999 236) rotate(0 153.5 181)"><path d="M7.86 8.16 C7.86 8.16, 7.86 8.16, 7.86 8.16 M7.86 8.16 C7.86 8.16, 7.86 8.16, 7.86 8.16 M1.43 27.75 C9.81 21.09, 17.22 9.37, 24.4 1.33 M1.43 27.75 C9 18.69, 16.25 11.06, 24.4 1.33 M0.91 40.54 C10.36 31.73, 18.91 19.14, 36.34 -0.21 M0.91 40.54 C14.06 26.9, 24.92 11.21, 36.34 -0.21 M1.04 52.58 C19.24 30.51, 37.61 13.34, 46.97 -0.25 M1.04 52.58 C14.51 38.27, 29.17 22.08, 46.97 -0.25 M1.18 64.62 C16.54 44.69, 34.81 27.23, 57.6 -0.28 M1.18 64.62 C15.26 46.95, 30.81 31.25, 57.6 -0.28 M1.31 76.67 C16.16 55.44, 34 36.54, 67.57 0.44 M1.31 76.67 C16.89 59.01, 31.09 43.63, 67.57 0.44 M0.79 89.46 C17.22 70.39, 35.12 53, 78.2 0.41 M0.79 89.46 C24.3 64.28, 46.97 37.51, 78.2 0.41 M0.92 101.5 C29.1 66.79, 60.12 34.88, 88.83 0.37 M0.92 101.5 C24.95 72.08, 50.65 43.99, 88.83 0.37 M1.05 113.54 C39.53 71.35, 75.97 26.97, 99.46 0.34 M1.05 113.54 C34.27 74.54, 67.29 36.68, 99.46 0.34 M1.19 125.58 C25.82 96.11, 52.17 69.45, 110.09 0.3 M1.19 125.58 C30.12 91.97, 61.11 57.34, 110.09 0.3 M0.66 138.38 C28.77 106.26, 57.35 74.95, 120.72 0.27 M0.66 138.38 C32.73 100.15, 68.55 60.7, 120.72 0.27 M0.8 150.42 C42.3 101.61, 86.96 53.83, 131.35 0.23 M0.8 150.42 C31.69 114.07, 63.65 75.76, 131.35 0.23 M0.93 162.46 C37.02 123.11, 71.57 83.09, 141.98 0.2 M0.93 162.46 C55.55 98.71, 109.85 36.71, 141.98 0.2 M1.06 174.5 C33.53 135.57, 65.87 98.85, 152.61 0.16 M1.06 174.5 C38.93 129.85, 77.13 87.01, 152.61 0.16 M0.54 187.3 C52.99 125.89, 105.52 67.59, 163.24 0.13 M0.54 187.3 C52.28 126.61, 106.98 64.16, 163.24 0.13 M0.67 199.34 C40.77 151.3, 81.63 105.21, 173.87 0.09 M0.67 199.34 C39.81 151.96, 81.84 105.67, 173.87 0.09 M0.81 211.38 C42.43 165.87, 82.81 119.15, 184.5 0.06 M0.81 211.38 C63.3 139.41, 127.3 66.08, 184.5 0.06 M0.94 223.42 C75.34 142.1, 145.6 57.32, 195.13 0.03 M0.94 223.42 C66.08 146.86, 132.2 70.14, 195.13 0.03 M1.07 235.46 C59.42 165.78, 116.24 100.42, 205.76 -0.01 M1.07 235.46 C61.22 168.28, 120.65 100.68, 205.76 -0.01 M0.55 248.26 C70.16 168.73, 137.96 87.55, 216.39 -0.04 M0.55 248.26 C83.52 153.87, 165.28 60.05, 216.39 -0.04 M0.68 260.3 C84.39 162.64, 169.51 64.15, 227.02 -0.08 M0.68 260.3 C85.11 164.17, 170.14 66.42, 227.02 -0.08 M0.82 272.34 C54.5 210.13, 109.02 147.92, 237.65 -0.11 M0.82 272.34 C88.84 172.25, 175.15 71.18, 237.65 -0.11 M0.95 284.38 C73.76 198.68, 149.42 112.41, 248.28 -0.15 M0.95 284.38 C62.36 214.52, 121.34 145.59, 248.28 -0.15 M0.43 297.17 C97.52 186.12, 196.99 71.93, 258.91 -0.18 M0.43 297.17 C54.66 234.5, 107.94 172.79, 258.91 -0.18 M0.56 309.22 C103.89 190.13, 207.54 71.1, 269.54 -0.22 M0.56 309.22 C74.16 225.53, 147.99 141.34, 269.54 -0.22 M0.69 321.26 C83.46 227.12, 164.29 133.87, 278.86 1.26 M0.69 321.26 C106.94 198.84, 214.35 74.96, 278.86 1.26 M0.83 333.3 C93.29 228.71, 183.7 123.82, 288.84 1.98 M0.83 333.3 C84.94 238.55, 167.71 143.03, 288.84 1.98 M2.27 343.83 C65.65 272.1, 129.34 199.26, 296.19 5.72 M2.27 343.83 C86.57 249.88, 167.98 155.3, 296.19 5.72 M6.34 351.34 C90.18 255.01, 174.96 158.31, 301.57 11.72 M6.34 351.34 C79.64 266.43, 153.71 180.47, 301.57 11.72 M11.72 357.34 C82.15 275.2, 153.26 194.16, 305.64 19.23 M11.72 357.34 C86.54 270.82, 163.41 182.31, 305.64 19.23 M19.73 360.33 C90.56 276.77, 162.77 192.92, 307.08 29.77 M19.73 360.33 C123.69 241.92, 226.8 121.9, 307.08 29.77 M29.05 361.8 C138.53 235.53, 250.21 109.27, 307.22 41.81 M29.05 361.8 C134.25 240.31, 240.52 119.35, 307.22 41.81 M39.02 362.52 C114.92 275.71, 189.01 188.05, 307.35 53.85 M39.02 362.52 C134.56 252.98, 230.24 142.56, 307.35 53.85 M49.65 362.49 C138.5 261.46, 224.82 162.61, 307.48 65.89 M49.65 362.49 C125.36 274.95, 200.16 189.82, 307.48 65.89 M60.28 362.45 C110.32 302.44, 163.23 241.3, 307.62 77.93 M60.28 362.45 C112.97 303.19, 165.04 242.75, 307.62 77.93 M70.91 362.42 C134.31 290.14, 196.25 218.15, 307.75 89.97 M70.91 362.42 C146.95 275.85, 221.78 188.57, 307.75 89.97 M81.54 362.39 C162.33 267.8, 246.76 172.47, 307.23 102.77 M81.54 362.39 C138.51 298.3, 194.15 234.42, 307.23 102.77 M92.17 362.35 C138.51 313.36, 182.31 259.77, 307.36 114.81 M92.17 362.35 C178.16 263.45, 264.8 165.29, 307.36 114.81 M102.8 362.32 C155.94 299.99, 211.94 235.01, 307.49 126.85 M102.8 362.32 C146.7 310.13, 191.55 258.29, 307.49 126.85 M113.43 362.28 C180.49 285.79, 245.51 211.21, 307.62 138.89 M113.43 362.28 C178.85 289.77, 243.18 215.27, 307.62 138.89 M124.06 362.25 C178.09 296.94, 236.01 232.57, 307.76 150.93 M124.06 362.25 C162.73 316.78, 203.5 270.3, 307.76 150.93 M134.69 362.21 C179.84 309.63, 222.46 259.77, 307.24 163.72 M134.69 362.21 C190.83 296.26, 247.43 230.98, 307.24 163.72 M145.32 362.18 C187.85 310.54, 231.07 260.11, 307.37 175.77 M145.32 362.18 C208.46 291.95, 269.84 221.07, 307.37 175.77 M155.95 362.14 C204.62 309.18, 249.34 255.76, 307.5 187.81 M155.95 362.14 C199.3 313.94, 241.71 265.54, 307.5 187.81 M166.58 362.11 C199.37 325.96, 232.2 286.96, 307.63 199.85 M166.58 362.11 C221.72 299.77, 275.85 238.23, 307.63 199.85 M177.21 362.08 C212.55 320.83, 248.93 281.52, 307.77 211.89 M177.21 362.08 C211.87 324.75, 245.88 285.9, 307.77 211.89 M187.19 362.8 C216.41 329.76, 249.2 294.82, 307.24 224.68 M187.19 362.8 C226.63 317.6, 266.84 272.06, 307.24 224.68 M197.82 362.76 C224.43 331.82, 254.74 299.36, 307.38 236.72 M197.82 362.76 C222.4 331.24, 249.44 300.69, 307.38 236.72 M208.45 362.73 C233.55 331.38, 260.75 304.57, 307.51 248.77 M208.45 362.73 C237.47 329.49, 264.7 298.52, 307.51 248.77 M219.08 362.69 C237.36 341.7, 254.27 320.78, 307.64 260.81 M219.08 362.69 C253.33 323.69, 286.59 283.5, 307.64 260.81 M229.71 362.66 C261.8 324.67, 292.35 291.59, 307.78 272.85 M229.71 362.66 C255.88 333.25, 280.13 304.55, 307.78 272.85 M240.34 362.62 C256.63 345.87, 268.05 330.55, 307.25 285.64 M240.34 362.62 C261.61 337.75, 284.43 312.1, 307.25 285.64 M250.97 362.59 C266.77 346.62, 282.76 325.97, 307.39 297.68 M250.97 362.59 C267.47 344.64, 283.61 326.51, 307.39 297.68 M261.6 362.55 C277.93 341.3, 296.92 321.89, 307.52 309.72 M261.6 362.55 C275.78 345.98, 291.9 328.23, 307.52 309.72 M272.23 362.52 C284.31 348.56, 293.26 338.69, 307.65 321.76 M272.23 362.52 C281.49 352.31, 289.31 342.05, 307.65 321.76 M284.17 360.98 C290.82 350.94, 303.5 341.52, 306.47 335.32 M284.17 360.98 C290.66 352.87, 297.5 346.64, 306.47 335.32" stroke="#a5d8ff" stroke-width="1" fill="none"></path><path d="M32 0 C105.46 3.25, 175.8 0.4, 275 0 M32 0 C86.34 -1.97, 141.45 -0.65, 275 0 M275 0 C296.38 1.18, 305.3 12.5, 307 32 M275 0 C297.25 -1.21, 305.01 12.83, 307 32 M307 32 C307.58 116.75, 309.01 201.22, 307 330 M307 32 C305.39 104.66, 305.6 177.27, 307 330 M307 330 C307.7 352.27, 295.35 362.56, 275 362 M307 330 C308.58 350.84, 294.61 363.96, 275 362 M275 362 C199.44 360.36, 128.1 361.64, 32 362 M275 362 C196.59 360.05, 119.83 359.65, 32 362 M32 362 C10.12 361.26, 0.39 350.65, 0 330 M32 362 C10.21 362.08, -1.49 350.96, 0 330 M0 330 C1.12 223.4, -0.15 116.99, 0 32 M0 330 C0.16 228.86, 0.87 127.02, 0 32 M0 32 C1.7 11.8, 12.55 -1.37, 32 0 M0 32 C-0.82 9.74, 9.94 1.68, 32 0" stroke="#1971c2" stroke-width="2" fill="none"></path></g><g transform="translate(882.3700027465819 404.5) rotate(0 6.129997253417969 12.5)"><text x="6.129997253417969" y="0" font-family="Virgil, Segoe UI Emoji" font-size="20px" fill="#1971c2" text-anchor="middle" style="white-space: pre;" direction="ltr" dominant-baseline="text-before-edge">K</text></g><g stroke-linecap="round" transform="translate(733.8466364542641 180.16666666666652) rotate(0 139.3333333333332 209.33333333333337)"><path d="M7.86 8.16 C7.86 8.16, 7.86 8.16, 7.86 8.16 M7.86 8.16 C7.86 8.16, 7.86 8.16, 7.86 8.16 M2.75 26.24 C6.58 19.19, 12.47 16.36, 21.12 5.11 M2.75 26.24 C9.77 18.09, 16.69 9.85, 21.12 5.11 M2.88 38.28 C11.15 28.61, 19.92 19.25, 34.37 2.05 M2.88 38.28 C9.49 31.75, 16.08 22.55, 34.37 2.05 M2.36 51.07 C11.82 39.84, 23.59 26.83, 45 2.02 M2.36 51.07 C17.09 34.6, 32.19 16.18, 45 2.02 M2.49 63.11 C12.24 52.03, 26.53 37.82, 55.63 1.98 M2.49 63.11 C14.03 48.87, 27.48 33.26, 55.63 1.98 M2.62 75.16 C23.77 52.63, 42.23 27.64, 66.26 1.95 M2.62 75.16 C19.04 56.33, 34.27 39.52, 66.26 1.95 M2.76 87.2 C27.91 58.01, 53.99 29.73, 76.89 1.91 M2.76 87.2 C21.37 65.34, 40.29 44.97, 76.89 1.91 M2.23 99.99 C21.97 79.72, 39.26 54.19, 87.52 1.88 M2.23 99.99 C30.09 65.37, 59.32 33.93, 87.52 1.88 M2.37 112.03 C31.93 79.2, 61.73 43.5, 98.15 1.85 M2.37 112.03 C25.17 83.48, 50.55 56.17, 98.15 1.85 M2.5 124.07 C37.26 86.24, 74.22 44.89, 108.78 1.81 M2.5 124.07 C24.08 96.96, 48.39 68.95, 108.78 1.81 M2.63 136.11 C31.77 107.26, 58.11 75.51, 119.41 1.78 M2.63 136.11 C48.65 82.29, 96.28 29.63, 119.41 1.78 M2.77 148.16 C49.37 97.54, 92.79 44.81, 130.04 1.74 M2.77 148.16 C46.85 99.42, 88.95 49.78, 130.04 1.74 M2.24 160.95 C34.99 123.7, 67.47 82.9, 140.67 1.71 M2.24 160.95 C57.19 95.98, 111.59 34.18, 140.67 1.71 M2.38 172.99 C38.34 130.4, 77.33 84.62, 150.65 2.43 M2.38 172.99 C36.5 130.3, 74.13 89, 150.65 2.43 M2.51 185.03 C58.14 117.99, 115.24 53.84, 161.28 2.39 M2.51 185.03 C39.57 139.84, 79.2 95.68, 161.28 2.39 M2.64 197.07 C58.67 134.17, 115.51 71.3, 171.91 2.36 M2.64 197.07 C62.96 127.49, 124.15 57.53, 171.91 2.36 M2.12 209.87 C68.14 131.9, 135.82 58.23, 182.54 2.32 M2.12 209.87 C62.11 141.63, 121.03 74.33, 182.54 2.32 M2.25 221.91 C59.95 154.35, 117.85 87.84, 193.17 2.29 M2.25 221.91 C41.35 177.48, 81.32 131.97, 193.17 2.29 M2.39 233.95 C75.41 148.85, 151.66 61.89, 203.8 2.26 M2.39 233.95 C64.36 159.95, 127.74 87.77, 203.8 2.26 M2.52 245.99 C56.62 185.11, 108.87 122.43, 214.43 2.22 M2.52 245.99 C79.96 156.19, 158.83 66.39, 214.43 2.22 M2 258.79 C59.77 195.27, 114.37 131.59, 225.06 2.19 M2 258.79 C62.54 192.05, 121.88 123.54, 225.06 2.19 M2.13 270.83 C72.22 190.56, 143.87 110.32, 235.69 2.15 M2.13 270.83 C89.2 169.61, 176.02 71.03, 235.69 2.15 M2.26 282.87 C94.56 180.41, 183.89 76.14, 247.63 0.61 M2.26 282.87 C80.52 190.46, 160.28 98.37, 247.63 0.61 M2.4 294.91 C76.67 211.07, 148.87 128.68, 256.95 2.08 M2.4 294.91 C89.64 193.23, 177.48 91.58, 256.95 2.08 M2.53 306.95 C77.99 218.01, 153.82 130.64, 264.95 5.07 M2.53 306.95 C58.24 242.06, 114.87 177.51, 264.95 5.07 M2.01 319.75 C80.69 227.14, 161.92 134.56, 271.65 9.56 M2.01 319.75 C105.43 200.76, 208.46 81.89, 271.65 9.56 M2.14 331.79 C72.68 249.79, 141.55 169.78, 277.03 15.56 M2.14 331.79 C101.35 219.17, 199.55 105.97, 277.03 15.56 M2.27 343.83 C107.63 223.53, 211.88 102.5, 281.75 22.32 M2.27 343.83 C60.27 276.66, 117.63 210.81, 281.75 22.32 M2.4 355.87 C87.15 255.72, 172.35 158.49, 281.89 34.36 M2.4 355.87 C100.12 244.57, 197.43 132.48, 281.89 34.36 M1.88 368.66 C108.12 246.66, 214.07 125.43, 281.36 47.16 M1.88 368.66 C74.95 283.86, 149.91 198.86, 281.36 47.16 M2.02 380.71 C102.8 261.95, 205.23 145.22, 281.5 59.2 M2.02 380.71 C79.53 291.03, 156.79 201.36, 281.5 59.2 M4.12 390.48 C92.73 288.67, 180.82 185.83, 281.63 71.24 M4.12 390.48 C75.65 307.35, 147.89 225.47, 281.63 71.24 M4.25 402.52 C101.96 289.9, 198.86 177.63, 281.76 83.28 M4.25 402.52 C63.11 333.51, 122.74 264.25, 281.76 83.28 M8.32 410.04 C74.32 334.06, 142.68 255.99, 281.9 95.32 M8.32 410.04 C66.86 345.27, 124.12 279.92, 281.9 95.32 M14.36 415.28 C84.26 335.85, 152.94 257.39, 281.37 108.12 M14.36 415.28 C99.52 315.57, 186.38 216.57, 281.37 108.12 M21.05 419.78 C107.45 317.62, 196.26 216.35, 281.51 120.16 M21.05 419.78 C122.48 304.48, 221.84 188.71, 281.51 120.16 M32.34 418.99 C105.22 334.86, 176.5 252.93, 281.64 132.2 M32.34 418.99 C117.27 319.04, 203.81 220.47, 281.64 132.2 M42.97 418.95 C97.65 357.56, 151.85 296.35, 281.77 144.24 M42.97 418.95 C134.51 312.53, 226.1 207.75, 281.77 144.24 M53.6 418.92 C125.88 335.74, 200.01 249.47, 281.91 156.28 M53.6 418.92 C124.64 338.71, 194.55 257.87, 281.91 156.28 M64.23 418.89 C122.41 352.07, 180.86 284.78, 281.38 169.08 M64.23 418.89 C115.87 358.6, 168.91 298.87, 281.38 169.08 M74.86 418.85 C120.81 365.19, 166.36 310.69, 281.52 181.12 M74.86 418.85 C120.42 363.69, 167.8 309.39, 281.52 181.12 M85.49 418.82 C140.41 358.1, 193.39 298.72, 281.65 193.16 M85.49 418.82 C149.22 343.09, 213.24 270.02, 281.65 193.16 M96.12 418.78 C162.46 343.03, 228.94 266.05, 281.78 205.2 M96.12 418.78 C136.34 373.35, 175.68 327.32, 281.78 205.2 M106.75 418.75 C170.92 344.7, 236.71 268.11, 281.92 217.24 M106.75 418.75 C150.98 366.48, 195.8 314.42, 281.92 217.24 M117.38 418.71 C163.32 366.25, 209.45 315.85, 281.39 230.04 M117.38 418.71 C175.03 352.23, 233.46 287.27, 281.39 230.04 M128.01 418.68 C181.78 354.89, 236.73 291.71, 281.53 242.08 M128.01 418.68 C184.48 351.95, 240.54 287.45, 281.53 242.08 M138.64 418.64 C167.8 384.99, 199.52 347.49, 281.66 254.12 M138.64 418.64 C167.48 385.36, 197.76 350.26, 281.66 254.12 M149.27 418.61 C196.6 364.42, 239.86 310.87, 281.79 266.16 M149.27 418.61 C181.98 382.25, 213.06 346.16, 281.79 266.16 M159.24 419.33 C204.67 364.25, 253.99 307.74, 281.92 278.2 M159.24 419.33 C200.61 369.5, 244.75 320, 281.92 278.2 M169.87 419.29 C203.71 379.51, 236.74 343.06, 281.4 290.99 M169.87 419.29 C215.24 369.98, 259.11 318.89, 281.4 290.99 M180.5 419.26 C215.12 379.26, 248.94 342.12, 281.53 303.04 M180.5 419.26 C202.31 393.19, 225.34 366.74, 281.53 303.04 M191.13 419.23 C219.24 386.8, 248.79 355.34, 281.67 315.08 M191.13 419.23 C224.27 380.44, 258.21 341.14, 281.67 315.08 M201.76 419.19 C230.21 389.78, 257.37 356.47, 281.8 327.12 M201.76 419.19 C222.36 394.53, 244.75 372.07, 281.8 327.12 M212.39 419.16 C234.4 392.89, 256.78 367.83, 281.93 339.16 M212.39 419.16 C230.46 397.6, 249.33 375.64, 281.93 339.16 M223.02 419.12 C233.72 404.44, 248.81 390.43, 281.41 351.95 M223.02 419.12 C243.93 393.52, 267.23 368.14, 281.41 351.95 M233.65 419.09 C254.96 396.36, 273.16 374.12, 281.54 363.99 M233.65 419.09 C242.64 407.64, 252.75 396.34, 281.54 363.99 M244.28 419.05 C255 403.77, 267.69 392.17, 281.68 376.04 M244.28 419.05 C254.87 407.16, 264.98 394.87, 281.68 376.04 M251.63 422.79 C258.89 415.27, 268.77 403.35, 281.15 388.83 M251.63 422.79 C259.15 414.43, 266.65 406.1, 281.15 388.83" stroke="#ffc9c9" stroke-width="1" fill="none"></path><path d="M32 0 C104.17 1.77, 173.45 -0.31, 246.67 0 M32 0 C112.34 -1.32, 192.58 -0.51, 246.67 0 M246.67 0 C268.77 -1.46, 279.87 11.49, 278.67 32 M246.67 0 C267.36 0.2, 279.83 10.38, 278.67 32 M278.67 32 C277.2 110.19, 277.39 190.41, 278.67 386.67 M278.67 32 C280.48 135, 279.69 238.7, 278.67 386.67 M278.67 386.67 C277.56 406.64, 269.66 417.82, 246.67 418.67 M278.67 386.67 C278.71 406.21, 269.52 417.61, 246.67 418.67 M246.67 418.67 C184.08 419.15, 119.45 418.81, 32 418.67 M246.67 418.67 C191.24 417.71, 135.12 418.72, 32 418.67 M32 418.67 C11.23 418.75, 0.58 409.28, 0 386.67 M32 418.67 C12.44 420.03, 0.61 406.51, 0 386.67 M0 386.67 C-1.46 279.18, -0.68 173.8, 0 32 M0 386.67 C1.5 306.62, 1.74 228.03, 0 32 M0 32 C0.75 9.32, 11.54 0.98, 32 0 M0 32 C1.66 11.2, 10 -0.79, 32 0" stroke="#e03131" stroke-width="2" fill="none"></path></g><g transform="translate(859.3899765014645 377) rotate(0 13.789993286132812 12.5)"><text x="13.789993286132812" y="0" font-family="Virgil, Segoe UI Emoji" font-size="20px" fill="#e03131" text-anchor="middle" style="white-space: pre;" direction="ltr" dominant-baseline="text-before-edge">K' </text></g><g stroke-linecap="round"><g transform="translate(1009.0133031209307 652.8333333333333) rotate(0 0 -28.333333333333258)"><path d="M-0.27 0.38 C-0.03 -9.12, 0.66 -46.77, 0.77 -56.27 M1.8 -0.47 C1.99 -10.41, 0.56 -49.05, 0.22 -58.18" stroke="#e03131" stroke-width="2" fill="none"></path></g></g><mask></mask><g stroke-linecap="round"><g transform="translate(717.3466364542642 172.83333333333337) rotate(0 -30 -1.6666666666666856)"><path d="M0.32 -0.29 C-9.51 -0.68, -48.82 -1.83, -58.93 -2.39 M-0.97 -1.49 C-10.87 -2.19, -49.26 -3.85, -59.31 -4.02" stroke="#e03131" stroke-width="2" fill="none"></path></g></g><mask></mask><g transform="translate(605.6799697875977 161.16666666666663) rotate(0 13.689994812011719 12.5)"><text x="0" y="0" font-family="Virgil, Segoe UI Emoji" font-size="20px" fill="#e03131" text-anchor="start" style="white-space: pre;" direction="ltr" dominant-baseline="text-before-edge">30</text></g><g transform="translate(980.6799697875972 664.5000000000002) rotate(0 24.009986877441406 12.5)"><text x="0" y="0" font-family="Virgil, Segoe UI Emoji" font-size="20px" fill="#e03131" text-anchor="start" style="white-space: pre;" direction="ltr" dominant-baseline="text-before-edge">8.33</text></g></svg>